HIERARCHY
ROOT Hips
{
  OFFSET 5.84602e-005 68.8428 3.50346
  CHANNELS 6 Xposition Yposition Zposition Zrotation Xrotation Yrotation
  JOINT Spine
  {
    OFFSET 0 8.597 -4.6522
    CHANNELS 3 Zrotation Xrotation Yrotation
    JOINT Spine1
    {
      OFFSET 0 7.8454 0.4098
      CHANNELS 3 Zrotation Xrotation Yrotation
      JOINT Spine2
      {
        OFFSET 0 9.7078 -2.1609
        CHANNELS 3 Zrotation Xrotation Yrotation
        JOINT Neck
        {
          OFFSET 0 21.8761 -0.4549
          CHANNELS 3 Zrotation Xrotation Yrotation
          JOINT Head
          {
            OFFSET 0 12.3537 3.3602
            CHANNELS 3 Zrotation Xrotation Yrotation
            End Site
            {
              OFFSET 0.0001 18.9506 0.5657
            }
          }
        }
        JOINT LeftShoulder
        {
          OFFSET 2.2086 21.1115 7.2329
          CHANNELS 3 Zrotation Xrotation Yrotation
          JOINT LeftArm
          {
            OFFSET 13.1193 3.0282 -4.8998
            CHANNELS 3 Zrotation Xrotation Yrotation
            JOINT LeftForeArm
            {
              OFFSET 27.4081 -0.0973053 -0.2375
              CHANNELS 3 Zrotation Xrotation Yrotation
              JOINT LeftHand
              {
                OFFSET 22.8641 0.0662994 -0.1369
                CHANNELS 3 Zrotation Xrotation Yrotation
                JOINT LeftHandIndex1
                {
                  OFFSET 8.8614 0.775009 2.4612
                  CHANNELS 3 Zrotation Xrotation Yrotation
                  JOINT LeftHandIndex2
                  {
                    OFFSET 3.3146 -0.808304 0.5841
                    CHANNELS 3 Zrotation Xrotation Yrotation
                    JOINT LeftHandIndex3
                    {
                      OFFSET 2.2628 -0.552002 0.3989
                      CHANNELS 3 Zrotation Xrotation Yrotation
                      End Site
                      {
                        OFFSET 1.6102 -0.4807 0.2612
                      }
                    }
                  }
                }
                JOINT LeftHandMiddle1
                {
                  OFFSET 8.9937 0.895004 0.2143
                  CHANNELS 3 Zrotation Xrotation Yrotation
                  JOINT LeftHandMiddle2
                  {
                    OFFSET 4.0984 0.0113983 -0.0242
                    CHANNELS 3 Zrotation Xrotation Yrotation
                    JOINT LeftHandMiddle3
                    {
                      OFFSET 2.2716 0.00689697 -0.0138001
                      CHANNELS 3 Zrotation Xrotation Yrotation
                      End Site
                      {
                        OFFSET 2.0404 -0.1441 0.0027
                      }
                    }
                  }
                }
                JOINT LeftHandRing1
                {
                  OFFSET 8.5234 0.597198 -2.0164
                  CHANNELS 3 Zrotation Xrotation Yrotation
                  JOINT LeftHandRing2
                  {
                    OFFSET 3.7188 -0.188293 -0.2328
                    CHANNELS 3 Zrotation Xrotation Yrotation
                    JOINT LeftHandRing3
                    {
                      OFFSET 2.1191 -0.106598 -0.1332
                      CHANNELS 3 Zrotation Xrotation Yrotation
                      End Site
                      {
                        OFFSET 1.8737 -0.2304 -0.0886
                      }
                    }
                  }
                }
                JOINT LeftHandPinky1
                {
                  OFFSET 7.9094 -0.601089 -3.4825
                  CHANNELS 3 Zrotation Xrotation Yrotation
                  JOINT LeftHandPinky2
                  {
                    OFFSET 2.2874 -0.477005 -0.6314
                    CHANNELS 3 Zrotation Xrotation Yrotation
                    JOINT LeftHandPinky3
                    {
                      OFFSET 1.6774 -0.349396 -0.4633
                      CHANNELS 3 Zrotation Xrotation Yrotation
                      End Site
                      {
                        OFFSET 1.4888 -0.4091 -0.3416
                      }
                    }
                  }
                }
                JOINT LeftHandThumb1
                {
                  OFFSET 1.833 -1.3875 1.3896
                  CHANNELS 3 Zrotation Xrotation Yrotation
                  JOINT LeftHandThumb2
                  {
                    OFFSET 3.4129 -1.121 2.5732
                    CHANNELS 3 Zrotation Xrotation Yrotation
                    JOINT LeftHandThumb3
                    {
                      OFFSET 2.2474 -0.804199 1.6192
                      CHANNELS 3 Zrotation Xrotation Yrotation
                      End Site
                      {
                        OFFSET 1.6527 -0.5689 1.1317
                      }
                    }
                  }
                }
              }
            }
          }
        }
        JOINT RightShoulder
        {
          OFFSET -2.2086 21.1115 7.2329
          CHANNELS 3 Zrotation Xrotation Yrotation
          JOINT RightArm
          {
            OFFSET -13.1216 3.0287 -4.9007
            CHANNELS 3 Zrotation Xrotation Yrotation
            JOINT RightForeArm
            {
              OFFSET -27.4081 -0.0973053 -0.2375
              CHANNELS 3 Zrotation Xrotation Yrotation
              JOINT RightHand
              {
                OFFSET -22.8641 0.0664063 -0.1369
                CHANNELS 3 Zrotation Xrotation Yrotation
                JOINT RightHandIndex1
                {
                  OFFSET -8.8614 0.774994 2.4612
                  CHANNELS 3 Zrotation Xrotation Yrotation
                  JOINT RightHandIndex2
                  {
                    OFFSET -3.3146 -0.808304 0.5841
                    CHANNELS 3 Zrotation Xrotation Yrotation
                    JOINT RightHandIndex3
                    {
                      OFFSET -2.2628 -0.552002 0.3989
                      CHANNELS 3 Zrotation Xrotation Yrotation
                      End Site
                      {
                        OFFSET -1.6102 -0.4807 0.2612
                      }
                    }
                  }
                }
                JOINT RightHandMiddle1
                {
                  OFFSET -8.9937 0.894989 0.2143
                  CHANNELS 3 Zrotation Xrotation Yrotation
                  JOINT RightHandMiddle2
                  {
                    OFFSET -4.0984 0.0113983 -0.0242
                    CHANNELS 3 Zrotation Xrotation Yrotation
                    JOINT RightHandMiddle3
                    {
                      OFFSET -2.2716 0.00691223 -0.0138001
                      CHANNELS 3 Zrotation Xrotation Yrotation
                      End Site
                      {
                        OFFSET -2.0404 -0.1441 0.0027
                      }
                    }
                  }
                }
                JOINT RightHandRing1
                {
                  OFFSET -8.5234 0.597198 -2.0164
                  CHANNELS 3 Zrotation Xrotation Yrotation
                  JOINT RightHandRing2
                  {
                    OFFSET -3.7188 -0.188309 -0.2328
                    CHANNELS 3 Zrotation Xrotation Yrotation
                    JOINT RightHandRing3
                    {
                      OFFSET -2.1191 -0.106598 -0.1332
                      CHANNELS 3 Zrotation Xrotation Yrotation
                      End Site
                      {
                        OFFSET -1.8737 -0.2304 -0.0886
                      }
                    }
                  }
                }
                JOINT RightHandPinky1
                {
                  OFFSET -7.9094 -0.601105 -3.4825
                  CHANNELS 3 Zrotation Xrotation Yrotation
                  JOINT RightHandPinky2
                  {
                    OFFSET -2.2874 -0.477005 -0.6314
                    CHANNELS 3 Zrotation Xrotation Yrotation
                    JOINT RightHandPinky3
                    {
                      OFFSET -1.6774 -0.349396 -0.4633
                      CHANNELS 3 Zrotation Xrotation Yrotation
                      End Site
                      {
                        OFFSET -1.4888 -0.4091 -0.3416
                      }
                    }
                  }
                }
                JOINT RightHandThumb1
                {
                  OFFSET -1.833 -1.38751 1.3896
                  CHANNELS 3 Zrotation Xrotation Yrotation
                  JOINT RightHandThumb2
                  {
                    OFFSET -3.41299 -1.12099 2.5732
                    CHANNELS 3 Zrotation Xrotation Yrotation
                    JOINT RightHandThumb3
                    {
                      OFFSET -2.24741 -0.804108 1.6192
                      CHANNELS 3 Zrotation Xrotation Yrotation
                      End Site
                      {
                        OFFSET -1.6527 -0.5689 1.1317
                      }
                    }
                  }
                }
              }
            }
          }
        }
      }
    }
  }
  JOINT RightUpLeg
  {
    OFFSET -9.1966 3.8861 -0.7581
    CHANNELS 3 Zrotation Xrotation Yrotation
    JOINT RightLeg
    {
      OFFSET -0.7359 -41.0265 0
      CHANNELS 3 Zrotation Xrotation Yrotation
      JOINT RightFoot
      {
        OFFSET 0 -40.2855 0
        CHANNELS 3 Zrotation Xrotation Yrotation
        JOINT RightToeBase
        {
          OFFSET 0 -5.6122 11.7359
          CHANNELS 3 Zrotation Xrotation Yrotation
          End Site
          {
            OFFSET 0 0 7.8731
          }
        }
      }
    }
  }
  JOINT LeftUpLeg
  {
    OFFSET 9.1965 3.8864 -0.7581
    CHANNELS 3 Zrotation Xrotation Yrotation
    JOINT LeftLeg
    {
      OFFSET 0.7359 -41.0268 0
      CHANNELS 3 Zrotation Xrotation Yrotation
      JOINT LeftFoot
      {
        OFFSET 0 -40.2855 0
        CHANNELS 3 Zrotation Xrotation Yrotation
        JOINT LeftToeBase
        {
          OFFSET 0 -5.6122 11.7359
          CHANNELS 3 Zrotation Xrotation Yrotation
          End Site
          {
            OFFSET 0 0 7.8731
          }
        }
      }
    }
  }
}
MOTION
Frames:	4
Frame Time:	0.0333333
39.7112 -5.84571 51.0741 0 76.1488 -0 -0.464451 2.9852 -0.194168 -0.920633 5.97185 -0.364806 -0.920634 5.97186 -0.364806 -0.00222606 -3.23096 -44.0018 -2.47171 -16.8607 -31.4955 -3.72046 8.86721 -6.6926 -33.8419 -45.9124 -9.46091 34.2504 -16.8011 -42.1501 22.9927 -33.2794 -20.3447 -0 0 3.18055e-015 -1.98785e-016 -5.96354e-016 -3.18055e-015 0 7.95139e-016 -0 -0 0 3.18055e-015 -0.0146171 -8.86102e-005 -1.00668e-005 -3.97569e-016 -6.95746e-016 -1.27222e-014 -0 0 3.18055e-015 -0.0187538 -0.00117612 5.58343e-005 -6.67869e-009 -1.98013e-007 2.49629e-006 -0 0 3.18055e-015 -0.0122541 -0.00324391 0.000675105 -1.98785e-016 -1.98785e-016 -0 -0 0 3.18055e-015 -1.98785e-016 -5.96354e-016 -3.18055e-015 0 7.95139e-016 -0 51.1593 -13.974 4.21395 37.1329 -38.3233 10.5123 -31.0567 -16.9094 35.2291 -6.99649 -14.3751 30.2114 -4.99335e-008 -4.96856e-008 -3.37382e-007 2.59655e-007 -3.45344e-008 -8.38034e-007 -1.15328e-007 4.73407e-008 -5.24251e-007 -4.99335e-008 -4.96856e-008 -3.37382e-007 0.0149887 -9.15557e-005 -2.01418e-006 -1.16221e-007 4.72776e-008 -5.24257e-007 -4.99335e-008 -4.96856e-008 -3.37382e-007 0.0189983 -0.00119133 -6.07046e-005 -1.16464e-007 4.73246e-008 -5.24254e-007 -4.99335e-008 -4.96856e-008 -3.37382e-007 0.0122703 -0.0032482 -0.000675351 -1.16074e-007 4.74773e-008 -5.24213e-007 -4.99335e-008 -4.96856e-008 -3.37382e-007 2.59655e-007 -3.45344e-008 -8.38034e-007 -1.15328e-007 4.73407e-008 -5.24251e-007 -5.42568 10.5512 -52.858 7.03588 17.1681 -22.4267 -16.0983 42.1926 11.2271 7.06348e-007 -5.20809e-007 2.24891e-006 3.01776 14.2575 47.6195 -4.79879 3.03871 20.7799 6.97161 41.0429 -5.61747 5.64127e-007 -8.32518e-007 1.32782e-006 
39.7116 -5.82937 51.0608 0 76.2989 -0 -0.456112 2.861 -0.194664 -0.904169 5.72343 -0.367173 -0.90417 5.72348 -0.367172 -0.00228878 -2.95569 -44.0018 -2.3404 -16.7863 -31.2042 -3.94438 8.42782 -6.61883 -33.8419 -45.9124 -9.46091 34.2442 -16.7963 -42.1368 22.1411 -32.8463 -20.996 -1.98785e-016 -7.95139e-016 3.18055e-015 1.98785e-016 -6.95746e-016 3.18055e-015 3.97569e-016 -5.96354e-016 3.18055e-015 -1.98785e-016 -7.95139e-016 3.18055e-015 -0.0146185 -8.83498e-005 -6.88345e-007 3.97569e-016 -2.98177e-016 3.18055e-015 -1.98785e-016 -7.95139e-016 3.18055e-015 -0.0187627 -0.00117632 5.83941e-005 -1.98785e-016 -5.96354e-016 -6.36111e-015 -1.98785e-016 -7.95139e-016 3.18055e-015 -0.0122795 -0.00325056 0.000683734 -1.98785e-016 -4.96962e-016 -0 -1.98785e-016 -7.95139e-016 3.18055e-015 1.98785e-016 -6.95746e-016 3.18055e-015 3.97569e-016 -5.96354e-016 3.18055e-015 51.0719 -13.8088 3.46439 37.592 -38.4314 11.0736 -31.1912 -17.0445 35.3231 -6.59732 -13.9298 30.3619 -6.48742e-008 9.76826e-008 -1.8688e-007 -5.02153e-008 -4.99987e-008 -3.37373e-007 1.98785e-016 -7.95139e-016 -3.18055e-015 -6.48742e-008 9.76826e-008 -1.8688e-007 0.0149957 -9.07252e-005 5.21213e-007 -1.78906e-015 -1.59028e-015 4.77083e-015 -6.48742e-008 9.76826e-008 -1.8688e-007 0.0190022 -0.00119249 -6.05571e-005 5.96354e-016 -7.95139e-016 -1.59028e-015 -6.48742e-008 9.76826e-008 -1.8688e-007 0.0122659 -0.00324701 -0.000676323 7.95139e-016 1.59028e-015 1.59028e-015 -6.48742e-008 9.76826e-008 -1.8688e-007 -5.02153e-008 -4.99987e-008 -3.37373e-007 1.98785e-016 -7.95139e-016 -3.18055e-015 -5.39482 10.2847 -52.3531 7.03609 17.1743 -22.4038 -15.4887 42.322 10.4943 7.68386e-007 1.72874e-006 2.76907e-006 2.98316 14.0751 47.5493 -4.79914 3.11242 20.7785 6.95178 41.0075 -5.60759 -9.69091e-007 9.66688e-007 1.41178e-006 
39.712 -5.813 51.0475 0 76.4489 -0 -0.447751 2.7369 -0.195233 -0.887674 5.47525 -0.369653 -0.887674 5.47524 -0.369654 -0.00233597 -2.68011 -44.0018 -2.20955 -16.7113 -30.9132 -4.16745 7.98806 -6.54686 -33.8419 -45.9124 -9.4609 34.238 -16.7914 -42.1234 21.2997 -32.4052 -21.6362 1.98785e-016 9.93923e-017 6.36111e-015 2.20695e-032 -1.98785e-016 6.36111e-015 -1.98785e-016 -7.95139e-016 6.36111e-015 1.98785e-016 9.93923e-017 6.36111e-015 -0.0145986 -8.89166e-005 3.30201e-007 2.58943e-009 -2.247e-007 2.50686e-006 1.98785e-016 9.93923e-017 6.36111e-015 -0.018759 -0.00117634 6.22899e-005 2.27408e-009 -2.2488e-007 2.50686e-006 1.98785e-016 9.93923e-017 6.36111e-015 -0.0123023 -0.00325626 0.000685988 2.15178e-031 1.2921e-015 -9.54166e-015 1.98785e-016 9.93923e-017 6.36111e-015 2.20695e-032 -1.98785e-016 6.36111e-015 -1.98785e-016 -7.95139e-016 6.36111e-015 50.9869 -13.6426 2.71586 38.0531 -38.536 11.6368 -31.3255 -17.1798 35.4169 -6.20016 -13.4836 30.509 -7.95139e-016 3.97569e-015 3.18055e-015 -3.97569e-016 3.18055e-015 3.18055e-015 -3.97569e-016 3.97569e-015 1.59028e-015 -7.95139e-016 3.97569e-015 3.18055e-015 0.0149972 -9.16387e-005 7.19419e-007 -1.98785e-016 1.59028e-015 -0 -7.95139e-016 3.97569e-015 3.18055e-015 0.0189853 -0.00119018 -5.95495e-005 -0 -7.95139e-016 -0 -7.95139e-016 3.97569e-015 3.18055e-015 0.0122865 -0.00325276 -0.000677275 -7.95139e-016 -7.95139e-016 -3.18055e-015 -7.95139e-016 3.97569e-015 3.18055e-015 -3.97569e-016 3.18055e-015 3.18055e-015 -3.97569e-016 3.97569e-015 1.59028e-015 -5.36165 10.0186 -51.8484 7.03632 17.1805 -22.3808 -14.8756 42.4455 9.7581 -1.41423e-006 1.03903e-006 -4.49781e-006 2.94656 13.8943 47.4795 -4.79945 3.18136 20.7772 6.93319 40.9743 -5.59833 -5.6397e-007 8.31099e-007 -1.32942e-006 
39.7124 -5.7966 51.0343 0 76.599 -0 -0.439364 2.61289 -0.195882 -0.871134 5.22719 -0.372259 -0.871135 5.2272 -0.372258 -0.00229891 -2.40474 -44.0018 -2.07914 -16.6356 -30.6224 -4.38972 7.54817 -6.47672 -33.8419 -45.9124 -9.46092 34.2318 -16.7866 -42.11 20.4685 -31.9566 -22.2653 6.95746e-016 1.98785e-016 3.18055e-015 -1.06493e-007 1.84904e-007 -3.40939e-009 -1.98785e-016 7.95139e-016 3.18055e-015 6.95746e-016 1.98785e-016 3.18055e-015 -0.0146076 -8.84349e-005 -7.88927e-006 -6.06912e-032 -1.09332e-015 -3.18055e-015 6.95746e-016 1.98785e-016 3.18055e-015 -0.0187594 -0.00117613 5.47489e-005 -9.97694e-008 -5.38455e-008 2.50855e-006 6.95746e-016 1.98785e-016 3.18055e-015 -0.0122671 -0.00324698 0.000675177 -4.96962e-016 -2.98177e-016 9.54166e-015 6.95746e-016 1.98785e-016 3.18055e-015 -1.06493e-007 1.84904e-007 -3.40939e-009 -1.98785e-016 7.95139e-016 3.18055e-015 50.9042 -13.4754 1.96821 38.5161 -38.6371 12.2019 -31.4597 -17.3153 35.5104 -5.80497 -13.0364 30.6525 3.97569e-016 -7.95139e-016 -0 -0 -2.38542e-015 -0 5.96354e-016 -3.18055e-015 -0 3.97569e-016 -7.95139e-016 -0 0.0149925 -9.14128e-005 -6.8709e-007 7.95139e-016 0 -0 3.97569e-016 -7.95139e-016 -0 0.0189978 -0.00119118 -5.92443e-005 1.98785e-016 -2.38542e-015 -1.59028e-015 3.97569e-016 -7.95139e-016 -0 0.0122687 -0.00324764 -0.000676254 1.98785e-016 1.59028e-015 1.59028e-015 3.97569e-016 -7.95139e-016 -0 -0 -2.38542e-015 -0 5.96354e-016 -3.18055e-015 -0 -5.3263 9.75257 -51.3441 7.03658 17.1872 -22.3576 -14.259 42.5629 9.01852 1.67262e-006 -4.67054e-006 4.84401e-006 2.84416 13.7718 47.4226 -4.79897 3.07611 20.7787 6.96035 41.0219 -5.61181 7.44922e-007 2.66043e-006 1.66078e-006 
